<svg width="24" height="24" viewBox="0 0 24 24" fill="none" xmlns="http://www.w3.org/2000/svg">
<g id="R">
<path id="Combined Shape" fill-rule="evenodd" clip-rule="evenodd" d="M12 1C5.92487 1 1 5.92487 1 12C1 18.0751 5.92487 23 12 23C18.0751 23 23 18.0751 23 12C23 5.92487 18.0751 1 12 1ZM3 12C3 16.9706 7.02944 21 12 21C16.9706 21 21 16.9706 21 12C21 7.02944 16.9706 3 12 3C7.02944 3 3 7.02944 3 12ZM9.17166 9.17154L7.75745 10.5858L12.0001 14.8284L16.2427 10.5858L14.8285 9.17157L12.0001 12L9.17166 9.17154Z" fill="#171717"/>
</g>
</svg>
