<svg width="24" height="24" viewBox="0 0 24 24" fill="none" xmlns="http://www.w3.org/2000/svg">
<g id="&#240;&#159;&#146;&#154; Icon - L">
<path id="Combined Shape" fill-rule="evenodd" clip-rule="evenodd" d="M0 7C0 4.79086 1.79086 3 4 3H20C22.2091 3 24 4.79086 24 7V17C24 19.2091 22.2091 21 20 21H4C1.79086 21 0 19.2091 0 17V7ZM4 5H20C21.1046 5 22 5.89543 22 7V14H2V7C2 5.89543 2.89543 5 4 5ZM2 16H22V17C22 18.1046 21.1046 19 20 19H4C2.89543 19 2 18.1046 2 17V16ZM5 8C4.44772 8 4 8.44772 4 9C4 9.55228 4.44772 10 5 10H9C9.55228 10 10 9.55228 10 9C10 8.44772 9.55228 8 9 8H5Z" fill="#171717"/>
</g>
</svg>
