<svg width="24" height="24" viewBox="0 0 24 24" fill="none" xmlns="http://www.w3.org/2000/svg">
<g id="&#240;&#159;&#143;&#128; Menu 1">
<path id="home-alt" fill-rule="evenodd" clip-rule="evenodd" d="M6 21C4.34315 21 3 19.6403 3 17.9632V9.84031C3 9.806 3.00169 9.77208 3.00498 9.73864C3 9.15561 3.2288 8.59645 3.63607 8.18418L9.87868 3.88947C11.0502 2.70351 12.9497 2.70351 14.1213 3.88947L20.3639 8.1842C20.7712 8.59646 21 9.15561 21 9.73864C20.9983 9.77208 21 9.806 21 9.84031V17.9632C21 19.6403 19.6569 21 18 21H6ZM12.7071 5.2974L19 9.6564V17.9846C19 18.5453 18.5523 19 18 19H15V13.923C15 12.2406 13.6569 10.8768 12 10.8768C10.3431 10.8768 9 12.2406 9 13.923V19H6C5.44772 19 5 18.5453 5 17.9846V9.65648L11.2929 5.2974C11.6834 4.90087 12.3166 4.90087 12.7071 5.2974Z" fill="#171717"/>
</g>
</svg>
